<?xml version="1.0" standalone="no"?>
<!DOCTYPE svg PUBLIC "-//W3C//DTD SVG 20010904//EN"
 "http://www.w3.org/TR/2001/REC-SVG-20010904/DTD/svg10.dtd">
<svg version="1.0" xmlns="http://www.w3.org/2000/svg"
 width="512.000000pt" height="512.000000pt" viewBox="0 0 512.000000 512.000000"
 preserveAspectRatio="xMidYMid meet">

<g transform="translate(0.000000,512.000000) scale(0.100000,-0.100000)"
fill="#000000" stroke="none">
<path d="M260 4923 c-8 -3 -25 -15 -37 -26 -54 -49 -106 91 877 -2369 502
-1256 922 -2293 933 -2305 29 -33 82 -40 124 -17 32 16 63 75 360 668 l325
649 511 -511 c334 -334 521 -513 539 -517 15 -4 37 -4 50 0 13 4 170 154 351
333 344 343 355 358 327 413 -7 13 -240 252 -518 531 l-505 506 649 325 c593
297 652 328 668 360 23 42 16 95 -17 124 -26 23 -4572 1843 -4602 1842 -11 0
-27 -3 -35 -6z"/>
</g>
</svg>
